# xmcd
#
# Track frame offsets:
#	150
#	11404
#	22864
#	34220
#	47045
#	59464
#	71215
#	86824
#	99851
#	111396
#	121105
#	133641
#	145457
#	156442
#	168425
#	181560
#	196120
#	205852
#
# Disc length: 2885 seconds
#
# Revision: 0
# Processed by: cddbd v1.5.1PL0 Copyright (c) Steve Scherf et al.
# Submitted via: dBpowerAMP V4.0
#
DISCID=f40b4312
DTITLE=Various Artist - Country Vol 3
DYEAR=1900
DGENRE=Country
TTITLE0=Just Out Of Reach - Patsy Cline
TTITLE1=Me And Bobbie McGee - Kenny Rogers
TTITLE2=There She Goes - Jerry Wallace
TTITLE3=Crazy Dreams - Conway Twitty
TTITLE4=The Shelter Of Your Arms - Willie Nelson
TTITLE5=You Can't Put The City In A Country Girl - Barbara Fairchild
TTITLE6=Your Cheatin' Heart - Razzy Baily
TTITLE7=Daddy - Donna Fargo
TTITLE8=Before The Next Teardrop Falls - Jeannie C. Riley
TTITLE9=Born To Lose - Johnny Cash
TTITLE10=It's Four In The Morning - Faron Young
TTITLE11=Country Girl - Jeannie C. Riley
TTITLE12=Stop The World (And Let Me Off) - Patsy Cline
TTITLE13=Look What hey've Done To My Song - Billie Jo Spears
TTITLE14=Wasted Days And Wasted Nights (Live)- Freddy Fender
TTITLE15=Faithless Love - Lynn Anderson
TTITLE16=From A Jack To A King - Ned Miller
TTITLE17=Burning Memories - Waylon Jennings
EXTD=
EXTT0=
EXTT1=
EXTT2=
EXTT3=
EXTT4=
EXTT5=
EXTT6=
EXTT7=
EXTT8=
EXTT9=
EXTT10=
EXTT11=
EXTT12=
EXTT13=
EXTT14=
EXTT15=
EXTT16=
EXTT17=
PLAYORDER=
